<svg width="1440" height="886" viewBox="0 0 1440 886" fill="none" xmlns="http://www.w3.org/2000/svg">
<path d="M-28.9746 312.032C-43.8999 304.838 -61.831 311.106 -69.0248 326.031C-76.2185 340.957 -69.9508 358.888 -55.0254 366.082L-28.9746 312.032ZM58.5578 347.703L76.165 371.993L58.5578 347.703ZM115.767 264.795L138.001 284.937L115.767 264.795ZM174.666 282.357L148.706 297.394L174.666 282.357ZM142.407 364.138L115.223 351.45L142.407 364.138ZM125.278 429.663L95.4905 433.224L95.4905 433.224L125.278 429.663ZM172.969 470.252L173.94 500.236L172.969 470.252ZM216.513 409.754L240.226 428.131L216.513 409.754ZM274.179 387.387L285.927 359.783L274.179 387.387ZM310.62 415.976L289.921 437.69L310.62 415.976ZM351.007 464.627L333.891 489.266L351.007 464.627ZM393.195 477.105L383.883 448.587L393.195 477.105ZM424.392 442.223L394.535 439.295L424.392 442.223ZM377.303 349.693L402.361 333.197L377.303 349.693ZM359.305 290.756L329.33 289.516L329.33 289.516L359.305 290.756ZM457.078 283.608L448.647 254.817L457.078 283.608ZM467.601 236.03L443.117 253.364L467.601 236.03ZM427.075 175.989L402.095 192.603L427.075 175.989ZM412.289 113.729L437.327 130.255L412.289 113.729ZM462.499 115.576L482.334 93.0685L462.499 115.576ZM490.699 143.938L468.53 164.15L490.699 143.938ZM507.39 172.13L481.981 188.079L507.39 172.13ZM562.924 192.073L576.087 219.031L562.924 192.073ZM600.33 135.465L572.06 125.425L600.33 135.465ZM660.725 108.532L675.05 82.1737L660.725 108.532ZM659.954 195.512L688.308 205.313L659.954 195.512ZM633.875 250.717L660.673 264.202L633.875 250.717ZM629.071 283.768L603.043 298.687L629.071 283.768ZM647.567 312.187L667.708 289.954L647.567 312.187ZM699.925 327.645L703.137 297.817L699.925 327.645ZM737.081 283.078L707.559 277.743L737.081 283.078ZM769.646 198.96L750.826 175.597L769.646 198.96ZM818.082 201.211L810.142 230.142L818.082 201.211ZM854.299 250.913L883.988 255.221L854.299 250.913ZM837.328 308.938L863.983 322.705L837.328 308.938ZM806.655 362.998L834.557 374.02L806.655 362.998ZM820.783 450.403L799.054 471.088L820.783 450.403ZM873.412 471.334L876.722 441.517L873.412 471.334ZM954.852 495.444L978.962 477.593L943.259 429.371L919.148 447.223L954.852 495.444ZM-55.0254 366.082C-39.6014 373.516 -18.5888 382.194 3.4989 385.873C25.3179 389.507 52.759 388.96 76.165 371.993L40.9506 323.414C36.0102 326.995 27.5437 329.051 13.356 326.688C-0.562879 324.37 -15.6559 318.451 -28.9746 312.032L-55.0254 366.082ZM76.165 371.993C96.6228 357.163 107.846 337.266 115.918 321.856C124.844 304.816 129.785 294.006 138.001 284.937L93.5337 244.654C78.7619 260.96 69.4995 281.165 62.768 294.015C55.1828 308.496 49.2949 317.365 40.9506 323.414L76.165 371.993ZM138.001 284.937C138.001 284.936 137.994 284.944 137.981 284.957C137.968 284.97 137.948 284.99 137.922 285.014C137.869 285.063 137.792 285.131 137.69 285.211C137.48 285.374 137.2 285.562 136.855 285.743C136.123 286.126 135.413 286.317 134.893 286.386C133.994 286.507 134.478 286.19 136.581 287.036C138.62 287.857 141.158 289.382 143.648 291.554C146.158 293.743 147.853 295.92 148.706 297.394L200.625 267.32C191.899 252.255 176.461 238.41 158.982 231.375C140.656 224 113.662 222.435 93.5337 244.654L138.001 284.937ZM148.706 297.394C148.223 296.558 147.587 294.849 147.566 292.738C147.549 290.932 148.001 290.105 147.721 290.803C147.384 291.646 146.684 293.04 145.039 295.817C144.651 296.473 144.246 297.146 143.792 297.901C143.354 298.629 142.856 299.455 142.363 300.284C141.376 301.941 140.232 303.902 139.104 306.01L192.013 334.305C193.223 332.043 194.337 330.321 196.664 326.392C198.597 323.128 201.285 318.447 203.426 313.098C208.228 301.098 210.591 284.525 200.625 267.32L148.706 297.394ZM139.104 306.01C132.109 319.091 122.508 335.843 115.223 351.45L169.592 376.827C175.963 363.176 183.728 349.797 192.013 334.305L139.104 306.01ZM115.223 351.45C106.891 369.301 91.6601 401.184 95.4905 433.224L155.066 426.102C153.615 413.962 159.746 397.921 169.592 376.827L115.223 351.45ZM95.4905 433.224C97.8191 452.702 104.33 472.205 120.868 485.53C137.01 498.536 156.79 500.792 173.94 500.236L171.998 440.268C160.21 440.65 158.036 438.424 158.512 438.808C159.384 439.511 156.519 438.251 155.066 426.102L95.4905 433.224ZM173.94 500.236C189.087 499.746 201.663 493.862 211.176 484.567C219.77 476.17 224.754 466.062 227.927 458.523C230.713 451.902 234.086 441.925 235.631 437.842C237.897 431.856 239.361 429.247 240.226 428.131L192.8 391.377C186.18 399.92 182.174 409.583 179.517 416.6C176.14 425.522 175.137 429.28 172.625 435.249C171.642 437.586 170.823 439.208 170.145 440.337C169.474 441.454 169.138 441.755 169.245 441.652C169.422 441.478 169.977 441.012 170.853 440.633C171.737 440.251 172.25 440.26 171.998 440.268L173.94 500.236ZM240.226 428.131C247.14 419.208 251.658 415.499 254.503 414.125C255.536 413.626 256.178 413.523 256.784 413.518C257.466 413.511 259.231 413.629 262.431 414.991L285.927 359.783C265.757 351.199 246.08 351.562 228.41 360.096C212.633 367.715 201.123 380.638 192.8 391.377L240.226 428.131ZM262.431 414.991C269.956 418.194 276.968 425.343 289.921 437.69L331.32 394.261C322.785 386.124 306.134 368.383 285.927 359.783L262.431 414.991ZM289.921 437.69C294.682 442.229 298.217 447.823 305.186 458.085C311.239 466.999 320.137 479.711 333.891 489.266L368.123 439.989C364.33 437.354 360.728 433.074 354.822 424.378C349.832 417.029 341.947 404.392 331.32 394.261L289.921 437.69ZM333.891 489.266C340.349 493.752 349.706 499.822 360.546 503.86C371.513 507.944 386.467 510.86 402.506 505.624L383.883 448.587C385.214 448.152 384.984 448.935 381.489 447.633C377.868 446.284 373.484 443.714 368.123 439.989L333.891 489.266ZM402.506 505.624C414.872 501.586 426.505 493.952 435.493 484.413C444.419 474.941 452.646 461.494 454.249 445.151L394.535 439.295C394.581 438.83 394.476 440.452 391.825 443.265C389.237 446.012 386.049 447.88 383.883 448.587L402.506 505.624ZM454.249 445.151C457.009 417.003 445.345 393.593 434.046 376.333C428.321 367.588 421.954 359.351 416.5 352.307C410.755 344.886 406.115 338.901 402.361 333.197L352.244 366.188C357.525 374.209 363.729 382.157 369.058 389.039C374.679 396.298 379.616 402.735 383.846 409.196C392.456 422.348 395.302 431.478 394.535 439.295L454.249 445.151ZM402.361 333.197C394.544 321.324 388.817 303.169 389.279 291.995L329.33 289.516C328.228 316.172 339.318 346.551 352.244 366.188L402.361 333.197ZM389.279 291.995C389.374 289.697 389.777 291.107 388 293.759C385.918 296.865 382.988 298.521 381.121 299.116C379.828 299.529 382.373 298.646 392.873 301.154C403.918 303.792 410.38 306.322 424.088 309.995C429.651 311.486 435.998 312.99 442.318 313.771C448.266 314.507 456.757 314.961 465.509 312.398L448.647 254.817C451.34 254.028 452.294 254.548 449.681 254.225C447.441 253.948 444.205 253.269 439.62 252.04C433.031 250.275 416.934 245.213 406.812 242.795C396.144 240.247 378.912 236.843 362.889 241.954C353.657 244.898 344.622 250.708 338.155 260.359C331.992 269.557 329.728 279.903 329.33 289.516L389.279 291.995ZM465.509 312.398C489.289 305.435 501.903 286.656 504.505 267.13C506.845 249.572 501.373 231.812 492.086 218.695L443.117 253.364C443.74 254.245 444.355 255.499 444.726 256.873C445.102 258.267 445.045 259.097 445.031 259.203C445.028 259.225 445.188 258.113 446.313 256.724C446.858 256.051 447.463 255.529 448.012 255.171C448.551 254.822 448.831 254.763 448.647 254.817L465.509 312.398ZM492.086 218.695C478.36 199.306 465.677 179.858 452.054 159.375L402.095 192.603C415.317 212.483 428.73 233.043 443.117 253.364L492.086 218.695ZM452.054 159.375C447.489 152.511 442.484 144.069 439.784 136.312C436.671 127.371 439.252 127.338 437.327 130.255L387.252 97.2022C373.23 118.445 378.279 142.136 383.12 156.041C388.373 171.13 396.809 184.656 402.095 192.603L452.054 159.375ZM437.327 130.255C438.714 128.154 438.777 128.984 436.756 129.911C434.551 130.923 432.565 130.822 431.894 130.7C431.6 130.647 432.552 130.788 434.859 132.172C437.078 133.504 439.708 135.478 442.664 138.083L482.334 93.0685C473.854 85.5954 459.824 74.7787 442.574 71.6583C433.113 69.9467 422.364 70.5011 411.739 75.3752C401.296 80.1653 393.283 88.0647 387.252 97.2022L437.327 130.255ZM442.664 138.083C451.491 145.862 459.691 154.456 468.53 164.15L512.868 123.725C503.62 113.583 493.663 103.053 482.334 93.0685L442.664 138.083ZM468.53 164.15C470.063 165.831 471.208 167.608 472.999 171.165C474.498 174.143 477.804 181.425 481.981 188.079L532.799 156.18C530.626 152.719 529.762 150.485 526.592 144.186C523.712 138.467 519.688 131.205 512.868 123.725L468.53 164.15ZM481.981 188.079C490.985 202.423 505.388 213.606 520.794 219.755C536.21 225.909 556.692 228.501 576.087 219.031L549.761 165.115C549.758 165.117 549.742 165.124 549.707 165.136C549.672 165.148 549.606 165.168 549.503 165.188C549.297 165.23 548.917 165.282 548.336 165.268C547.12 165.24 545.292 164.931 543.037 164.031C538.095 162.058 534.312 158.59 532.799 156.18L481.981 188.079ZM576.087 219.031C593.528 210.515 605.018 194.371 612.071 182.216C619.66 169.135 625.134 155.264 628.6 145.506L572.06 125.425C569.125 133.688 565.09 143.632 560.173 152.105C557.738 156.303 555.395 159.597 553.278 161.961C552.245 163.114 551.388 163.909 550.739 164.431C550.091 164.953 549.757 165.117 549.761 165.115L576.087 219.031ZM628.6 145.506C628.349 146.213 628.58 145.187 630.728 143.101C632.727 141.16 635.507 139.177 638.645 137.655C641.82 136.115 644.511 135.456 646.251 135.311C647.967 135.169 647.672 135.583 646.399 134.891L675.05 82.1737C652.738 70.0476 628.169 76.0519 612.463 83.6686C596.592 91.3654 579.048 105.749 572.06 125.425L628.6 145.506ZM646.399 134.891C644.888 134.07 644.302 132.423 644.428 132.912C644.813 134.42 645.132 138.145 644.063 144.784C641.851 158.527 636.102 172.687 631.6 185.712L688.308 205.313C691.351 196.509 700.005 174.798 703.301 154.317C706.248 136.004 707.789 99.9667 675.05 82.1737L646.399 134.891ZM631.6 185.712C625.64 202.957 617.467 216.583 607.077 237.231L660.673 264.202C668.886 247.881 680.604 227.604 688.308 205.313L631.6 185.712ZM607.077 237.231C604.502 242.348 600.47 250.787 598.294 260.336C596.154 269.728 594.857 284.407 603.043 298.687L655.098 268.849C656.283 270.917 656.602 272.757 656.665 273.704C656.719 274.516 656.586 274.581 656.795 273.665C656.997 272.78 657.4 271.483 658.109 269.739C658.81 268.018 659.671 266.194 660.673 264.202L607.077 237.231ZM603.043 298.687C604.128 300.58 605.2 302.607 606.612 305.267C607.932 307.756 609.547 310.793 611.332 313.856C614.866 319.918 619.931 327.632 627.425 334.421L667.708 289.954C666.829 289.157 665.408 287.48 663.167 283.638C662.066 281.748 660.972 279.705 659.614 277.147C658.348 274.761 656.774 271.774 655.098 268.849L603.043 298.687ZM627.425 334.421C639.419 345.286 654.377 350.182 665.613 352.799C677.219 355.502 689.104 356.653 696.713 357.472L703.137 297.817C694.485 296.886 686.551 296.07 679.224 294.363C671.525 292.57 668.435 290.613 667.708 289.954L627.425 334.421ZM696.713 357.472C708.839 358.778 720.61 356.798 731.088 351.015C741.285 345.388 748.206 337.297 752.874 329.626C761.592 315.295 764.834 298.198 766.603 288.413L707.559 277.743C706.695 282.526 705.817 286.805 704.707 290.645C703.576 294.554 702.474 297.027 701.615 298.44C700.82 299.746 700.823 299.187 702.097 298.484C703.651 297.627 704.493 297.963 703.137 297.817L696.713 357.472ZM766.603 288.413C767.807 281.746 768.305 274.748 768.663 269.088C769.057 262.855 769.303 257.88 769.834 252.878C771.003 241.871 772.933 239.35 772.837 239.456L728.37 199.173C714.587 214.387 711.479 234.213 710.17 246.543C709.462 253.209 709.108 260.151 708.783 265.301C708.421 271.024 708.077 274.875 707.559 277.743L766.603 288.413ZM772.837 239.456C781.885 229.468 783.74 226.129 788.466 222.322L750.826 175.597C741.293 183.277 731.609 195.598 728.37 199.173L772.837 239.456ZM788.466 222.322C786.376 224.006 784.599 224.263 784.629 224.259C784.856 224.228 786.152 224.133 788.926 224.559C791.617 224.973 794.75 225.72 798.48 226.763C800.325 227.279 802.142 227.817 804.111 228.4C805.982 228.953 808.109 229.583 810.142 230.142L826.021 172.281C821.857 171.138 809.162 166.964 798.037 165.255C787.171 163.586 767.364 162.275 750.826 175.597L788.466 222.322ZM810.142 230.142C819.161 232.617 822.507 235.637 823.539 236.959C823.97 237.51 825.635 239.543 824.61 246.605L883.988 255.221C886.905 235.119 883.138 215.78 870.813 200.01C859.09 185.011 842.356 176.763 826.021 172.281L810.142 230.142ZM824.61 246.605C822.089 263.978 817.387 282.172 810.673 295.172L863.983 322.705C875.011 301.351 881.003 275.795 883.988 255.221L824.61 246.605ZM810.673 295.172C806.686 302.891 801.984 309.947 795.901 319.63C790.239 328.643 783.666 339.539 778.753 351.976L834.557 374.02C837.302 367.071 841.321 360.123 846.709 351.546C851.676 343.639 858.481 333.357 863.983 322.705L810.673 295.172ZM778.753 351.976C763.188 391.378 766.997 437.413 799.054 471.088L842.512 429.718C829.452 415.999 825.93 395.86 834.557 374.02L778.753 351.976ZM799.054 471.088C820.67 493.795 850.13 498.933 870.101 501.15L876.722 441.517C858.54 439.498 848.355 435.856 842.512 429.718L799.054 471.088ZM870.101 501.15C874.952 501.689 889.894 503.69 904.185 504.499C911.369 504.906 919.467 505.09 926.951 504.49C930.697 504.189 934.959 503.644 939.218 502.576C943.125 501.596 949.138 499.675 954.852 495.444L919.148 447.223C920.926 445.907 922.43 445.2 923.23 444.866C924.06 444.519 924.577 444.389 924.627 444.377C924.656 444.37 923.922 444.54 922.155 444.682C918.613 444.966 913.609 444.937 907.578 444.595C895.441 443.908 883.504 442.27 876.722 441.517L870.101 501.15Z" fill="#662549" fill-opacity="0.02"/>
<path d="M967.259 411.308L943.067 429.049L978.549 477.433L1002.74 459.692L967.259 411.308ZM1019.84 357.226L1046.73 370.523L1019.84 357.226ZM1081.3 358.018L1060.44 379.579L1081.3 358.018ZM1072.62 445.503L1043 440.729L1072.62 445.503ZM1074.06 513.214L1046.38 524.783L1074.06 513.214ZM1131.03 539.22L1140.16 567.797L1140.16 567.797L1131.03 539.22ZM1156.38 469.123L1184.21 480.318L1156.38 469.123ZM1205.73 431.844L1209.48 402.08L1205.73 431.844ZM1248.6 449.382L1234.62 475.928L1248.6 449.382ZM1300.75 485.14L1291.02 513.519L1300.75 485.14ZM1344.74 485.61L1327.99 460.723L1344.74 485.61ZM1365.21 443.529L1335.69 448.874L1365.21 443.529ZM1294.62 367.395L1314.22 344.678L1294.62 367.395ZM1261.2 315.623L1232.03 322.625L1232.03 322.625L1261.2 315.623ZM1353.29 282.019L1337.31 256.63L1353.29 282.019ZM1350.41 233.377L1331.6 256.745L1350.41 233.377ZM1295.01 186.702L1275.53 209.512L1295.01 186.702ZM1263.77 130.855L1292.37 139.907L1263.77 130.855ZM1312.57 118.906L1325.5 91.8339L1312.57 118.906ZM1347.45 138.479L1331.65 163.982L1347.45 138.479ZM1371.21 161.034L1351.13 183.322L1371.21 161.034ZM1430.09 165.036L1450.12 187.369L1430.09 165.036ZM1450.59 100.36L1420.65 98.4295L1450.59 100.36ZM1501.32 57.9427L1507.9 28.6719L1501.32 57.9427ZM1524.36 141.82L1554.31 143.496L1524.36 141.82ZM1514.36 202.051L1543.83 207.697L1514.36 202.051ZM1518.78 235.157L1497.82 256.623L1518.78 235.157ZM1544.34 257.437L1557.63 230.545L1544.34 257.437ZM1598.93 257.993L1593.86 228.424L1598.93 257.993ZM1622.49 204.967L1592.63 207.906L1622.49 204.967ZM1630.82 115.15L1606.33 97.8224L1630.82 115.15ZM1678.02 104.075L1678.29 134.074L1678.02 104.075ZM1726.45 141.983L1756.18 138.011L1726.45 141.983ZM1725.98 202.438L1755.39 208.393L1725.98 202.438ZM1711.26 262.823L1741.11 265.798L1711.26 262.823ZM1748.74 343.037L1733.49 368.874L1748.74 343.037ZM1805.09 348.783L1800.12 319.197L1805.09 348.783ZM1864.13 356.274C1874.24 343.15 1871.8 324.312 1858.68 314.199C1845.55 304.085 1826.71 306.526 1816.6 319.649L1864.13 356.274ZM1002.74 459.692C1025.29 443.16 1033.07 423.925 1037.18 406.512C1041.37 388.751 1041.17 381.776 1046.73 370.523L992.947 343.93C983.336 363.369 980.716 384.532 978.781 392.734C976.763 401.285 974.715 405.84 967.259 411.308L1002.74 459.692ZM1046.73 370.523C1046.73 370.523 1046.73 370.531 1046.72 370.548C1046.71 370.564 1046.7 370.588 1046.68 370.619C1046.64 370.681 1046.59 370.767 1046.51 370.871C1046.35 371.086 1046.13 371.343 1045.85 371.612C1045.25 372.18 1044.62 372.558 1044.14 372.767C1043.31 373.128 1043.69 372.691 1045.94 372.931C1048.13 373.163 1050.98 373.936 1053.97 375.344C1056.99 376.764 1059.21 378.395 1060.44 379.579L1102.16 336.457C1089.64 324.352 1071.01 315.254 1052.27 313.266C1032.63 311.181 1006.23 317.055 992.947 343.93L1046.73 370.523ZM1060.44 379.579C1059.74 378.908 1058.66 377.438 1058.07 375.412C1057.56 373.679 1057.76 372.761 1057.69 373.509C1057.59 374.411 1057.3 375.944 1056.48 379.065C1056.28 379.802 1056.08 380.56 1055.85 381.41C1055.62 382.231 1055.37 383.16 1055.12 384.093C1054.63 385.957 1054.06 388.156 1053.55 390.492L1112.18 403.246C1112.73 400.738 1113.33 398.778 1114.49 394.363C1115.46 390.694 1116.77 385.457 1117.36 379.726C1118.7 366.871 1116.45 350.283 1102.16 336.457L1060.44 379.579ZM1053.55 390.492C1050.4 404.987 1045.75 423.725 1043 440.729L1102.24 450.277C1104.64 435.405 1108.45 420.413 1112.18 403.246L1053.55 390.492ZM1043 440.729C1039.87 460.178 1033.94 495.01 1046.38 524.783L1101.74 501.646C1097.02 490.365 1098.54 473.259 1102.24 450.277L1043 440.729ZM1046.38 524.783C1053.94 542.882 1065.54 559.863 1085.09 568.159C1104.17 576.257 1123.81 573.02 1140.16 567.797L1121.9 510.644C1110.66 514.233 1107.96 512.687 1108.53 512.926C1109.56 513.364 1106.46 512.936 1101.74 501.646L1046.38 524.783ZM1140.16 567.797C1154.6 563.184 1165.08 554.087 1171.69 542.546C1177.66 532.119 1179.7 521.034 1180.69 512.914C1181.56 505.784 1182.07 495.265 1182.44 490.915C1182.99 484.537 1183.68 481.628 1184.21 480.318L1128.54 457.929C1124.51 467.956 1123.3 478.346 1122.66 485.822C1121.85 495.327 1121.91 499.217 1121.13 505.645C1120.82 508.161 1120.48 509.945 1120.13 511.217C1119.79 512.475 1119.55 512.856 1119.63 512.728C1119.75 512.512 1120.16 511.912 1120.9 511.308C1121.64 510.699 1122.14 510.567 1121.9 510.644L1140.16 567.797ZM1184.21 480.318C1188.42 469.845 1191.75 465.042 1194.11 462.943C1194.97 462.18 1195.56 461.906 1196.14 461.735C1196.8 461.543 1198.53 461.173 1201.98 461.609L1209.48 402.08C1187.74 399.337 1168.91 405.065 1154.24 418.104C1141.15 429.746 1133.61 445.323 1128.54 457.929L1184.21 480.318ZM1201.98 461.609C1210.09 462.632 1218.79 467.592 1234.62 475.928L1262.57 422.836C1252.14 417.343 1231.27 404.829 1209.48 402.08L1201.98 461.609ZM1234.62 475.928C1240.44 478.993 1245.37 483.407 1254.88 491.373C1263.14 498.293 1275.18 508.088 1291.02 513.519L1310.48 456.762C1306.11 455.264 1301.47 452.132 1293.41 445.381C1286.6 439.676 1275.57 429.676 1262.57 422.836L1234.62 475.928ZM1291.02 513.519C1298.46 516.07 1309.12 519.35 1320.65 520.271C1332.31 521.202 1347.49 519.919 1361.49 510.497L1327.99 460.723C1329.15 459.942 1329.14 460.758 1325.42 460.461C1321.57 460.153 1316.65 458.879 1310.48 456.762L1291.02 513.519ZM1361.49 510.497C1372.28 503.233 1381.39 492.709 1387.42 481.077C1393.42 469.525 1397.66 454.342 1394.73 438.183L1335.69 448.874C1335.61 448.414 1335.95 450.003 1334.17 453.434C1332.43 456.784 1329.88 459.451 1327.99 460.723L1361.49 510.497ZM1394.73 438.183C1389.69 410.353 1372.07 391.023 1356.49 377.509C1348.59 370.662 1340.21 364.48 1333.04 359.195C1325.49 353.627 1319.39 349.138 1314.22 344.678L1275.03 390.112C1282.3 396.385 1290.44 402.333 1297.45 407.497C1304.84 412.943 1311.35 417.785 1317.18 422.844C1329.06 433.141 1334.29 441.145 1335.69 448.874L1394.73 438.183ZM1314.22 344.678C1303.45 335.394 1292.98 319.496 1290.37 308.622L1232.03 322.625C1238.25 348.567 1257.23 374.757 1275.03 390.112L1314.22 344.678ZM1290.37 308.622C1289.83 306.384 1290.61 307.631 1289.62 310.668C1288.47 314.225 1286.1 316.618 1284.47 317.701C1283.34 318.452 1285.54 316.907 1296.33 316.449C1307.68 315.967 1314.58 316.634 1328.77 316.42C1334.53 316.334 1341.05 316.045 1347.34 315.069C1353.26 314.15 1361.56 312.267 1369.27 307.409L1337.31 256.63C1339.69 255.135 1340.75 255.374 1338.15 255.778C1335.92 256.124 1332.62 256.356 1327.87 256.427C1321.05 256.53 1304.18 256.061 1293.78 256.503C1282.83 256.968 1265.32 258.404 1251.3 267.7C1243.23 273.056 1236.13 281.115 1232.54 292.166C1229.13 302.698 1229.78 313.269 1232.03 322.625L1290.37 308.622ZM1369.27 307.409C1390.24 294.21 1397.24 272.698 1394.41 253.204C1391.86 235.675 1381.74 220.088 1369.22 210.009L1331.6 256.745C1332.44 257.421 1333.37 258.459 1334.1 259.679C1334.85 260.918 1335.02 261.731 1335.03 261.838C1335.04 261.86 1334.89 260.746 1335.59 259.102C1335.93 258.306 1336.37 257.638 1336.8 257.145C1337.22 256.661 1337.48 256.527 1337.31 256.63L1369.27 307.409ZM1369.22 210.009C1350.72 195.111 1333.2 179.871 1314.5 163.892L1275.53 209.512C1293.68 225.02 1312.2 241.13 1331.6 256.745L1369.22 210.009ZM1314.5 163.892C1308.23 158.537 1301.11 151.785 1296.39 145.062C1290.95 137.313 1293.43 136.575 1292.37 139.907L1235.17 121.802C1227.49 146.069 1238.82 167.477 1247.28 179.529C1256.46 192.608 1268.27 203.312 1275.53 209.512L1314.5 163.892ZM1292.37 139.907C1293.13 137.507 1293.42 138.288 1291.73 139.733C1289.88 141.308 1287.95 141.754 1287.27 141.821C1286.97 141.85 1287.93 141.725 1290.52 142.426C1293.02 143.101 1296.09 144.281 1299.65 145.978L1325.5 91.8339C1315.3 86.9635 1298.85 80.3941 1281.4 82.1081C1271.83 83.0482 1261.65 86.5198 1252.76 94.1128C1244.02 101.575 1238.47 111.364 1235.17 121.802L1292.37 139.907ZM1299.65 145.978C1310.26 151.048 1320.5 157.073 1331.65 163.982L1363.25 112.976C1351.58 105.748 1339.13 98.3409 1325.5 91.8339L1299.65 145.978ZM1331.65 163.982C1333.59 165.179 1335.17 166.575 1337.87 169.507C1340.13 171.962 1345.3 178.063 1351.13 183.322L1391.3 138.746C1388.26 136.01 1386.82 134.098 1382.05 128.906C1377.71 124.191 1371.86 118.307 1363.25 112.976L1331.65 163.982ZM1351.13 183.322C1363.72 194.658 1380.63 201.477 1397.13 203.181C1413.64 204.886 1434.05 201.781 1450.12 187.369L1410.05 142.704C1410.05 142.706 1410.04 142.718 1410.01 142.739C1409.98 142.76 1409.92 142.797 1409.83 142.845C1409.64 142.942 1409.29 143.095 1408.72 143.241C1407.55 143.546 1405.7 143.748 1403.29 143.499C1398 142.952 1393.41 140.651 1391.3 138.746L1351.13 183.322ZM1450.12 187.369C1464.56 174.41 1471.2 155.74 1474.66 142.12C1478.39 127.462 1479.86 112.623 1480.53 102.29L1420.65 98.4295C1420.09 107.181 1418.93 117.848 1416.51 127.343C1415.32 132.047 1413.96 135.855 1412.57 138.708C1411.9 140.1 1411.29 141.098 1410.81 141.779C1410.33 142.457 1410.05 142.707 1410.05 142.704L1450.12 187.369ZM1480.53 102.29C1480.48 103.039 1480.42 101.988 1481.92 99.3943C1483.31 96.9806 1485.44 94.3135 1488.05 91.9917C1490.68 89.6424 1493.09 88.2729 1494.72 87.658C1496.33 87.0516 1496.16 87.5309 1494.75 87.2135L1507.9 28.6719C1483.12 23.107 1461.13 35.599 1448.1 47.219C1434.94 58.9611 1422 77.5931 1420.65 98.4295L1480.53 102.29ZM1494.75 87.2135C1493.07 86.8365 1492.06 85.4123 1492.31 85.849C1493.09 87.1938 1494.42 90.6896 1495.21 97.368C1496.84 111.193 1495.18 126.385 1494.41 140.144L1554.31 143.496C1554.83 134.196 1557.22 110.946 1554.79 90.3448C1552.62 71.9237 1544.25 36.8374 1507.9 28.6719L1494.75 87.2135ZM1494.41 140.144C1493.39 158.362 1489.25 173.703 1484.9 196.405L1543.83 207.697C1547.27 189.753 1553 167.045 1554.31 143.496L1494.41 140.144ZM1484.9 196.405C1483.82 202.031 1482.25 211.25 1482.77 221.03C1483.28 230.65 1486.04 245.124 1497.82 256.623L1539.74 213.691C1541.44 215.356 1542.25 217.039 1542.57 217.933C1542.84 218.699 1542.73 218.798 1542.68 217.859C1542.64 216.953 1542.67 215.595 1542.88 213.724C1543.08 211.877 1543.41 209.887 1543.83 207.697L1484.9 196.405ZM1497.82 256.623C1499.38 258.147 1500.97 259.803 1503.05 261.976C1505 264.009 1507.39 266.49 1509.94 268.947C1515 273.812 1521.98 279.848 1531.04 284.33L1557.63 230.545C1556.57 230.019 1554.75 228.794 1551.54 225.71C1549.96 224.194 1548.35 222.528 1546.35 220.438C1544.48 218.489 1542.15 216.046 1539.74 213.691L1497.82 256.623ZM1531.04 284.33C1545.55 291.502 1561.28 292.123 1572.8 291.569C1584.7 290.996 1596.45 288.854 1603.99 287.563L1593.86 228.424C1585.29 229.893 1577.43 231.277 1569.92 231.638C1562.02 232.018 1558.51 230.98 1557.63 230.545L1531.04 284.33ZM1603.99 287.563C1616.01 285.504 1626.79 280.381 1635.29 271.955C1643.56 263.753 1648.01 254.079 1650.4 245.424C1654.87 229.256 1653.32 211.924 1652.34 202.028L1592.63 207.906C1593.11 212.742 1593.43 217.098 1593.41 221.096C1593.39 225.164 1593.01 227.845 1592.57 229.438C1592.16 230.912 1592.01 230.374 1593.05 229.349C1594.31 228.1 1595.21 228.193 1593.86 228.424L1603.99 287.563ZM1652.34 202.028C1651.68 195.286 1650.24 188.418 1649.04 182.876C1647.72 176.773 1646.59 171.92 1645.74 166.964C1643.85 156.056 1645.02 153.104 1644.96 153.231L1591.17 126.639C1582.07 145.041 1584.5 164.962 1586.61 177.18C1587.75 183.786 1589.31 190.559 1590.41 195.602C1591.62 201.206 1592.34 205.004 1592.63 207.906L1652.34 202.028ZM1644.96 153.231C1650.93 141.151 1651.8 137.432 1655.31 132.478L1606.33 97.8224C1599.26 107.816 1593.31 122.315 1591.17 126.639L1644.96 153.231ZM1655.31 132.478C1653.75 134.669 1652.12 135.402 1652.14 135.39C1652.35 135.298 1653.57 134.852 1656.36 134.504C1659.06 134.166 1662.28 134.029 1666.15 134.012C1668.07 134.004 1669.96 134.025 1672.02 134.047C1673.97 134.068 1676.18 134.093 1678.29 134.074L1677.75 74.0763C1673.43 74.1154 1660.08 73.5708 1648.91 74.968C1638 76.3327 1618.59 80.486 1606.33 97.8224L1655.31 132.478ZM1678.29 134.074C1687.65 133.989 1691.69 135.98 1693.04 136.969C1693.61 137.381 1695.77 138.882 1696.71 145.955L1756.18 138.011C1753.49 117.877 1744.58 100.305 1728.42 88.5051C1713.04 77.282 1694.69 73.9228 1677.75 74.0763L1678.29 134.074ZM1696.71 145.955C1699.04 163.355 1699.49 182.143 1696.58 196.482L1755.39 208.393C1760.16 184.838 1758.94 158.617 1756.18 138.011L1696.71 145.955ZM1696.58 196.482C1694.86 204.997 1692.26 213.069 1689.06 224.047C1686.08 234.265 1682.73 246.542 1681.41 259.848L1741.11 265.798C1741.85 258.364 1743.82 250.581 1746.65 240.858C1749.27 231.894 1753.01 220.144 1755.39 208.393L1696.58 196.482ZM1681.41 259.848C1677.2 302.005 1693.45 345.245 1733.49 368.874L1763.99 317.2C1747.67 307.574 1738.78 289.164 1741.11 265.798L1681.41 259.848ZM1733.49 368.874C1760.49 384.807 1790.24 381.696 1810.05 378.369L1800.12 319.197C1782.08 322.226 1771.29 321.507 1763.99 317.2L1733.49 368.874ZM1810.05 378.369C1811.82 378.073 1813.86 377.868 1817.6 377.468C1820.87 377.12 1825.36 376.625 1829.98 375.728C1838.46 374.079 1853.54 370.009 1864.13 356.274L1816.6 319.649C1818.19 317.589 1819.85 316.656 1820.38 316.401C1820.75 316.226 1820.35 316.476 1818.53 316.83C1816.7 317.185 1814.5 317.458 1811.23 317.807C1808.45 318.104 1804.13 318.525 1800.12 319.197L1810.05 378.369Z" fill="#662549" fill-opacity="0.02"/>
</svg>
