<svg width="648" height="406" viewBox="0 0 648 406" fill="none" xmlns="http://www.w3.org/2000/svg">
<path d="M-42 3C-32.9698 33.6025 -23.5 70.0658 19.1044 83.3299C53.9145 90.6584 84.7185 70.0658 118.958 70.0658C145.339 70.0658 152.097 104.848 145.486 125.507C140.569 140.872 124.681 140.805 111.357 144.136C95.6395 148.066 78.6449 151.745 63.2188 156.506C42.6851 162.844 17.756 171.015 3.15763 187.804C-17.7431 211.839 -15.0278 229.582 5.09509 250.398C25.7699 271.786 50.6317 252.273 75 250.398C99.8016 248.49 121.176 251.822 130.292 278.119C135.228 292.357 138.114 301.135 137.736 315.974C137.196 337.227 126.048 357.38 128.794 378.568C130.644 392.842 134.437 410.535 147.871 418.212C161.143 425.796 181.855 427.42 194.668 417.914C223.69 396.381 223.417 352.712 231.628 320.892C236.342 302.628 248.681 280.104 263.224 267.984C299.86 237.454 312.635 322.451 334.165 335.646C353.901 347.743 372.388 329.962 376.491 311.503C381.768 287.755 387.834 264.655 393.779 241.158C398.142 223.912 408.292 191.739 429.994 188.4C456.613 184.304 462.056 206.508 462.335 226.851C462.519 240.283 461.528 253.431 460.248 266.792C459.067 279.132 453.795 286.592 450.561 298.089C445.205 317.133 453.266 344.717 473.065 352.636C492.064 360.236 522.478 349.708 540.131 342.353C559.036 334.476 595.236 346.781 600.639 369.03C608.17 400.037 556.903 417.792 535.66 426.856C516.422 435.064 497.182 439.075 477.238 444.591C467.109 447.393 453.092 452.222 449.518 463.22C446.085 473.783 440.874 484.71 440.874 496.008C440.874 513.172 454.951 531.963 464.57 545.19C480.521 567.122 505.107 553.672 522.545 542.805C538.992 532.556 558.494 510.017 578.88 510.017C588.03 510.017 597.707 509.037 606.75 510.464C622.639 512.973 631.26 535.336 637.6 547.872C649.466 571.334 647.859 592.766 625.081 608.082C609.171 618.78 589.369 629.504 570.683 634.462C550.698 639.764 529.534 640.684 510.026 648.024C479.211 659.618 457.151 684.548 454.734 717.176C453.263 737.035 463.318 754.672 474.556 770.233C481.408 779.72 487.898 794.66 499.892 797.059" stroke="#F39F5A" stroke-width="5" stroke-linecap="round"/>
</svg>
