<svg width="201" height="366" viewBox="0 0 201 366" fill="none" xmlns="http://www.w3.org/2000/svg">
<path d="M226.5 29.5C219.57 44.0647 175.144 48.9435 161.524 50.4541C145.459 52.236 128.165 53.5986 112.275 56.2439C91.1252 59.7649 65.3831 64.5129 48.6921 79.1868C24.7954 100.196 25.0898 118.141 42.1769 141.472C59.7326 165.442 92.1772 141.737 116.517 143.153C141.289 144.595 161.968 150.767 167.437 178.05C170.399 192.821 166.827 209.617 164.456 224.27C161.059 245.257 147.325 263.728 147.187 285.093C147.093 299.485 148.459 317.527 160.704 326.938C172.802 336.237 193.056 340.628 207.001 332.93" stroke="#662549" stroke-width="58" stroke-linecap="round"/>
<path d="M206.5 36C196 46 175.144 48.9436 161.525 50.4542C145.459 52.2361 128.165 53.5987 112.276 56.2439C91.1255 59.765 65.3834 64.5129 48.6924 79.1868C24.7956 100.196 25.0901 118.141 42.1771 141.471C59.7329 165.442 92.1774 141.736 116.517 143.153C141.289 144.595 161.968 150.767 167.438 178.05C170.399 192.821 166.828 209.617 164.456 224.27C161.06 245.257 147.326 263.728 147.187 285.093C147.094 299.485 148.459 317.527 160.704 326.938C172.802 336.237 193.056 340.628 207.001 332.93" stroke="#F39F5A" stroke-width="5" stroke-linecap="round"/>
</svg>
