<svg width="27" height="29" viewBox="0 0 27 29" fill="none" xmlns="http://www.w3.org/2000/svg">
<path d="M21 10C21 7.34784 19.9464 4.8043 18.0711 2.92893C16.1957 1.05357 13.6522 2.00233e-07 11 0C8.34784 -2.00233e-07 5.8043 1.05357 3.92893 2.92893C2.05357 4.8043 1 7.34783 1 10L11 10H21Z" fill="#331832"/>
<path d="M17.5678 24.3545C19.9673 23.2246 21.8196 21.1879 22.7174 18.6923C23.6151 16.1967 23.4847 13.4466 22.3548 11.0472C21.225 8.64772 19.1882 6.79536 16.6926 5.89762C14.197 4.99987 11.447 5.13027 9.04755 6.26012L13.3077 15.3073L17.5678 24.3545Z" fill="#F39F5A"/>
</svg>
