<svg width="245" height="240" viewBox="0 0 245 240" fill="none" xmlns="http://www.w3.org/2000/svg">
<circle cx="122.598" cy="119.838" r="94.9236" stroke="#5A0E19" stroke-width="4.52017"/>
<circle cx="39.8808" cy="120.742" r="18.0807" fill="white" stroke="#5A0E19" stroke-width="4.52017"/>
<circle cx="122.6" cy="202.556" r="18.0807" fill="white" stroke="#5A0E19" stroke-width="4.52017"/>
<circle cx="205.318" cy="120.742" r="18.0807" fill="white" stroke="#5A0E19" stroke-width="4.52017"/>
<circle cx="122.6" cy="37.1181" r="18.0807" fill="white" stroke="#5A0E19" stroke-width="4.52017"/>
<circle cx="205.545" cy="120.515" r="7.9103" fill="white" stroke="#5A0E19" stroke-width="4.52017"/>
<circle cx="122.829" cy="36.893" r="7.9103" fill="white" stroke="#5A0E19" stroke-width="4.52017"/>
<circle cx="122.829" cy="202.331" r="7.9103" fill="white" stroke="#5A0E19" stroke-width="4.52017"/>
<circle cx="40.1059" cy="120.515" r="7.9103" fill="white" stroke="#5A0E19" stroke-width="4.52017"/>
<circle cx="205.544" cy="122.324" r="5.4242" stroke="#5A0E19" stroke-width="0.452017"/>
<line x1="122.148" y1="54.2954" x2="122.148" y2="184.928" stroke="#5A0E19" stroke-width="4.52017"/>
<line x1="69.0611" y1="40.5031" x2="201.502" y2="174.752" stroke="#5A0E19" stroke-width="4.52017"/>
<line x1="44.2007" y1="66.7204" x2="176.642" y2="200.969" stroke="#5A0E19" stroke-width="4.52017"/>
<line x1="41.0039" y1="172.076" x2="175.197" y2="39.5784" stroke="#5A0E19" stroke-width="4.52017"/>
<circle cx="122.829" cy="119.61" r="9.04034" fill="white" stroke="#5A0E19" stroke-width="2.26009"/>
<circle cx="145.88" cy="95.2021" r="9.04034" stroke="#5A0E19" stroke-width="2.26009"/>
<circle cx="96.6098" cy="95.2021" r="9.04034" stroke="#5A0E19" stroke-width="2.26009"/>
<circle cx="98.8696" cy="142.665" r="9.04034" stroke="#5A0E19" stroke-width="2.26009"/>
<circle cx="145.88" cy="143.568" r="9.04034" stroke="#5A0E19" stroke-width="2.26009"/>
<circle cx="122.94" cy="119.499" r="3.95515" fill="white" stroke="#5A0E19" stroke-width="2.26009"/>
<line x1="67.2324" y1="196.926" x2="201.426" y2="64.4285" stroke="#5A0E19" stroke-width="4.52017"/>
<path d="M117.18 8.41518C117.003 4.41065 122.005 0.504883 122.005 0.504883C122.005 0.504883 126.838 4.46621 126.664 8.41518C126.501 12.0956 122.005 15.4214 122.005 15.4214C122.005 15.4214 117.346 12.1551 117.18 8.41518Z" fill="#5A0E19"/>
<path d="M117.18 232.164C117.003 228.159 122.005 224.253 122.005 224.253C122.005 224.253 126.838 228.215 126.664 232.164C126.501 235.844 122.005 239.17 122.005 239.17C122.005 239.17 117.346 235.904 117.18 232.164Z" fill="#5A0E19"/>
<path d="M40.1831 46.3058C36.9455 43.9425 37.0212 37.5964 37.0212 37.5964C37.0212 37.5964 43.1336 36.2982 46.1081 38.9015C48.8802 41.3277 48.668 46.9161 48.668 46.9161C48.668 46.9161 43.2068 48.5131 40.1831 46.3058Z" fill="#5A0E19"/>
<path d="M9.07517 126.143C5.08043 126.474 0.985203 121.626 0.985203 121.626C0.985203 121.626 4.75778 116.645 8.71053 116.667C12.3944 116.687 15.8907 121.052 15.8907 121.052C15.8907 121.052 12.806 125.833 9.07517 126.143Z" fill="#5A0E19"/>
<path d="M237.544 125.518C233.549 125.85 229.454 121.001 229.454 121.001C229.454 121.001 233.227 116.02 237.179 116.042C240.863 116.063 244.359 120.428 244.359 120.428C244.359 120.428 241.275 125.209 237.544 125.518Z" fill="#5A0E19"/>
<path d="M200.123 200.831C196.786 198.61 196.588 192.266 196.588 192.266C196.588 192.266 202.639 190.706 205.723 193.178C208.597 195.483 208.626 201.075 208.626 201.075C208.626 201.075 203.239 202.906 200.123 200.831Z" fill="#5A0E19"/>
<path d="M40.0087 193.517C42.802 190.642 49.075 191.606 49.075 191.606C49.075 191.606 49.5049 197.84 46.5109 200.42C43.7205 202.826 38.2168 201.833 38.2168 201.833C38.2168 201.833 37.4 196.202 40.0087 193.517Z" fill="#5A0E19"/>
<path d="M195.521 38.8082C198.609 36.2521 204.741 37.888 204.741 37.888C204.741 37.888 204.494 44.1318 201.239 46.3738C198.205 48.4633 192.841 46.8816 192.841 46.8816C192.841 46.8816 192.637 41.1954 195.521 38.8082Z" fill="#5A0E19"/>
</svg>
