<svg width="113" height="88" viewBox="0 0 113 88" fill="none" xmlns="http://www.w3.org/2000/svg">
<path d="M30.4131 13.1027C30.4131 13.1027 24.0138 7.35815 19.0003 7.21215C11.3456 6.98925 6.77288 12.6285 3.90585 19.7295C1.64511 25.3288 1.09895 29.8455 3.90585 35.192C6.7974 40.6997 11.1512 42.4164 17.1595 44.0278C27.567 46.8191 43.2986 35.192 43.2986 35.192M43.2986 35.192C43.2986 35.192 58.2525 27.9946 62.0745 21.1441C65.4405 15.1109 67.2253 9.23926 62.0745 4.63506C59.8032 2.60474 57.7431 2.35835 54.7114 2.05797C42.3027 0.828493 42.5855 19.4296 43.2986 31.8786C43.8269 41.102 45.2045 47.1447 50.5966 54.6463C54.6333 60.2622 58.0804 63.9604 64.6516 66.1171C69.7407 67.7875 76.517 68.6497 82.9944 66.1171C90.8992 63.0265 94.6718 60.5538 101.402 55.3826C107.228 50.9068 111.7 45.4747 110.974 39.1838C110.49 34.9831 109.069 33.0055 105.551 30.6582C103.277 29.1406 96.9444 27.4219 91.462 27.7709C82.4762 28.343 75.8973 31.7028 67.5969 35.192C60.246 38.2821 56.3042 40.428 49.1891 44.0278C35.9808 50.7101 22.3415 49.8349 13.4128 61.6413C10.1529 65.9519 8.59384 69.4906 8.62681 74.8949C8.64706 78.2141 9.46995 80.5418 12.0053 82.6842C15.0802 85.2824 19.1478 86.7892 22.9849 85.5715C29.8982 83.3775 34.3977 71.5815 34.3977 71.5815C34.3977 71.5815 39.3661 59.3027 40.3533 52.8635C42.6675 37.7691 41.7745 45.8936 42.129 41.0246C42.3661 37.7691 43.2986 35.192 43.2986 35.192Z" stroke="#331832" stroke-width="2.94525" stroke-linecap="round" stroke-linejoin="round"/>
</svg>
