<svg width="360" height="360" viewBox="0 0 360 360" fill="none" xmlns="http://www.w3.org/2000/svg">
<rect width="360" height="360" rx="40" fill="#F6D8FF"/>
<g clip-path="url(#clip0_1880_204)">
<path d="M213.458 123H185.208C172.227 123 161.667 133.561 161.667 146.542V174.792C161.667 187.773 172.227 198.333 185.208 198.333H213.458C226.439 198.333 237 187.773 237 174.792V146.542C237 133.561 226.439 123 213.458 123ZM227.583 174.792C227.583 182.579 221.246 188.917 213.458 188.917H185.208C177.421 188.917 171.083 182.579 171.083 174.792V146.542C171.083 138.754 177.421 132.417 185.208 132.417H213.458C221.246 132.417 227.583 138.754 227.583 146.542V174.792ZM199.333 212.458C199.333 225.439 188.773 236 175.792 236H147.542C134.561 236 124 225.439 124 212.458V184.208C124 171.227 134.561 160.667 147.542 160.667C150.145 160.667 152.25 162.776 152.25 165.375C152.25 167.974 150.145 170.083 147.542 170.083C139.754 170.083 133.417 176.421 133.417 184.208V212.458C133.417 220.246 139.754 226.583 147.542 226.583H175.792C183.579 226.583 189.917 220.246 189.917 212.458C189.917 209.859 192.021 207.75 194.625 207.75C197.229 207.75 199.333 209.859 199.333 212.458Z" fill="#451952"/>
</g>
<defs>
<clipPath id="clip0_1880_204">
<rect width="113" height="113" fill="white" transform="translate(124 123)"/>
</clipPath>
</defs>
</svg>
